<svg id="Layer_1" data-name="Layer 1" xmlns="http://www.w3.org/2000/svg" width="280" height="260" viewBox="0 0 280 260"><defs><style>.cls-1{fill:none;}.cls-1,.cls-2,.cls-3{stroke:#000;stroke-miterlimit:10;}.cls-1,.cls-3{stroke-width:8px;}.cls-2{fill:#fff;stroke-width:16px;}</style></defs><title>popup</title><path class="cls-1" d="M194.48,13.63c-62.41-.13-100.7-.25-163.11-.38-13.72,0-24.84,10.8-24.84,24.11V227.14c0,13.31,11.12,24.11,24.84,24.11H246.3c13.72,0,24.84-10.8,24.84-24.11.13-54.8.26-92.22.39-147"/><path class="cls-2" d="M100.71,166.42,210.53,69"/><path class="cls-3" d="M238.55,103.1a4.73,4.73,0,0,1-7.89,1.69L202.72,75.16,174.54,45.47A4.49,4.49,0,0,1,177,38l40.64-8.59L258,20.71a4.58,4.58,0,0,1,5.46,5.79L251,64.8Z"/></svg>
